<?xml version="1.0" encoding="UTF-8" standalone="yes"?>
<svg xmlns="http://www.w3.org/2000/svg" xmlns:xlink="http://www.w3.org/1999/xlink" version="1.0" x="0" y="0" width="360" height="240">
<rect width="360" height="240" x="0" y="0" fill="#004080" />
<polygon points="0,120 180,0 360,120 180,240" fill="#fcd116" />
<g transform="translate(180.000000,120.000000)">
<g transform="scale(0.097403)">
<g transform="translate(-640.000000,-640.000000)">

<g transform="translate(0.000000,1280.000000) scale(0.100000,-0.100000)"
fill="#75aadb" stroke="#000" stroke-width="80">
<path d="M26 12726 c14 -39 54 -180 89 -313 99 -370 139 -476 232 -616 32 -49
211 -238 563 -597 2772 -2828 4685 -4784 4685 -4791 0 -5 -409 -410 -910 -900
-500 -491 -1084 -1062 -1296 -1270 l-387 -379 -643 528 -644 528 -6 54 c-7 65
-26 104 -71 147 -121 116 -329 72 -394 -83 -18 -44 -18 -142 1 -187 38 -91
106 -137 214 -146 l78 -6 499 -625 c275 -344 551 -689 613 -768 l114 -144 -48
-48 c-39 -39 -52 -47 -66 -39 -74 39 -170 -45 -140 -124 10 -25 9 -26 -16 -16
-38 14 -79 2 -109 -34 -22 -26 -25 -38 -21 -72 l6 -40 -48 3 c-44 3 -50 1 -75
-29 -23 -26 -27 -40 -24 -74 l3 -42 -41 5 c-76 8 -132 -71 -99 -142 7 -16 6
-17 -15 -6 -34 18 -85 4 -115 -32 -23 -27 -26 -39 -22 -73 l6 -40 -48 3 c-44
3 -50 1 -75 -29 -23 -26 -27 -40 -24 -74 l3 -42 -40 5 c-72 8 -131 -65 -106
-131 10 -25 9 -26 -16 -16 -38 14 -79 2 -109 -34 -22 -26 -25 -38 -21 -72 l6
-40 -48 3 c-44 3 -50 1 -75 -29 -23 -26 -27 -40 -24 -74 l3 -42 -40 5 c-73 8
-131 -65 -106 -132 10 -25 9 -26 -10 -15 -33 17 -85 2 -114 -33 -22 -26 -26
-39 -23 -73 l5 -40 -42 3 c-34 3 -48 -1 -74 -24 -30 -25 -32 -32 -29 -74 l3
-47 -40 5 c-74 8 -131 -65 -105 -133 10 -27 8 -32 -42 -82 l-54 -54 -69 10
c-339 48 -643 -235 -622 -579 25 -402 451 -641 808 -454 202 106 313 321 287
556 l-7 73 52 52 c51 52 53 53 88 42 72 -23 139 38 126 114 l-5 32 47 -3 c40
-3 50 0 75 26 24 26 28 37 25 75 l-4 44 40 -5 c34 -3 47 1 73 23 35 29 50 81
33 114 -11 19 -10 20 15 10 39 -14 80 -2 110 34 21 25 25 38 22 72 l-5 40 46
-3 c40 -3 51 0 73 23 30 30 37 57 27 97 -7 27 -7 27 35 22 35 -5 47 -2 73 20
36 30 48 71 34 109 -10 25 -9 26 16 16 38 -14 79 -2 109 34 21 25 25 38 22 72
l-5 40 46 -3 c40 -3 50 0 75 26 27 30 38 84 21 111 -4 7 8 9 37 5 38 -5 48 -2
76 21 35 29 50 81 33 113 -10 19 -9 19 23 10 69 -21 135 40 123 115 l-5 32 42
-3 c35 -3 49 1 75 24 30 25 32 31 29 75 l-3 48 40 -6 c34 -4 46 -1 73 22 35
29 50 81 33 114 -11 19 -10 20 15 10 80 -30 164 65 125 140 -8 14 -1 27 38 65
l47 47 770 -613 771 -613 -5 -45 c-2 -30 3 -64 18 -102 62 -166 273 -212 398
-87 46 45 63 83 69 148 7 74 -9 128 -53 179 -44 52 -99 81 -165 89 l-50 6
-525 640 -525 640 173 176 c154 156 475 484 1968 2009 217 221 397 402 400
402 11 0 2535 -2583 2533 -2591 -2 -5 -237 -294 -522 -642 l-520 -634 -50 -6
c-66 -8 -121 -37 -165 -89 -44 -51 -60 -105 -53 -179 6 -65 23 -103 69 -148
125 -125 336 -79 398 87 15 38 20 72 18 102 l-5 45 771 613 770 613 47 -47
c39 -38 46 -51 38 -65 -17 -34 -10 -78 19 -110 29 -33 65 -41 110 -25 22 7 23
6 13 -12 -20 -38 -13 -72 24 -109 33 -33 39 -35 78 -30 l42 6 -3 -48 c-3 -44
-1 -50 29 -75 26 -23 40 -27 75 -24 l42 3 -5 -32 c-12 -75 54 -136 123 -115
32 9 33 9 23 -10 -17 -32 -2 -84 33 -113 27 -23 38 -26 75 -21 41 5 42 5 34
-17 -13 -34 -2 -73 27 -103 22 -22 34 -25 73 -22 l46 3 -5 -40 c-8 -73 65
-131 132 -106 25 10 26 9 15 -10 -17 -33 -2 -85 33 -114 27 -23 38 -26 74 -21
42 5 42 5 35 -22 -10 -40 -3 -67 27 -97 22 -23 33 -26 73 -23 l46 3 -5 -40
c-8 -73 65 -131 132 -106 24 10 26 9 16 -8 -19 -37 -11 -72 25 -108 32 -32 40
-35 78 -31 l42 5 -3 -46 c-3 -40 0 -50 26 -75 26 -24 37 -28 75 -25 l44 4 -5
-40 c-8 -74 65 -131 133 -105 27 10 32 8 82 -42 l53 -53 -9 -70 c-42 -347 234
-643 580 -622 341 21 582 345 504 676 -65 272 -335 459 -610 420 l-69 -10 -54
54 c-50 50 -52 55 -42 82 15 40 4 80 -33 111 -25 21 -38 25 -72 22 l-40 -5 3
43 c4 38 0 48 -27 75 -27 27 -37 31 -76 27 l-44 -3 6 40 c4 34 1 46 -22 73
-29 35 -81 50 -114 33 -19 -11 -20 -10 -10 15 14 39 2 80 -34 110 -25 21 -38
25 -72 22 l-40 -5 3 42 c3 34 -1 48 -24 74 -25 30 -31 32 -75 29 l-48 -3 6 40
c4 34 1 46 -22 73 -29 35 -81 50 -114 33 -19 -11 -20 -10 -10 15 14 39 2 80
-34 110 -25 21 -38 25 -72 22 l-40 -5 3 42 c3 34 -1 48 -24 74 -25 30 -31 32
-75 29 l-48 -3 6 40 c4 34 1 46 -22 73 -29 35 -81 50 -114 33 -19 -11 -20 -10
-10 15 14 39 2 80 -34 110 -25 21 -38 25 -72 22 l-40 -5 3 42 c3 34 -1 48 -24
74 -25 30 -31 32 -75 29 l-48 -3 6 40 c4 34 1 46 -21 72 -31 36 -71 48 -110
33 -26 -9 -27 -9 -20 12 30 87 -58 170 -135 129 -14 -8 -27 0 -66 39 l-48 49
274 344 c151 189 427 535 614 770 l340 426 54 0 c152 2 251 97 251 243 0 138
-103 241 -240 241 -66 0 -123 -23 -168 -66 -45 -43 -64 -82 -71 -146 l-6 -55
-644 -528 -644 -528 -390 383 c-214 210 -797 781 -1296 1270 -498 488 -906
891 -906 896 0 5 1164 1197 2587 2650 1423 1452 2608 2666 2633 2698 53 67
132 224 169 336 15 43 53 181 86 305 33 125 73 266 89 313 l29 86 -89 -28
c-48 -16 -184 -54 -301 -85 -117 -30 -253 -69 -303 -85 -121 -40 -277 -117
-347 -171 -32 -25 -363 -344 -735 -709 -373 -366 -1243 -1217 -1933 -1893
-690 -676 -1367 -1340 -1505 -1475 -137 -136 -461 -453 -718 -706 l-468 -458
-227 224 c-125 124 -445 438 -712 700 -267 261 -822 805 -1235 1209 -412 405
-1193 1169 -1735 1699 -542 531 -1082 1060 -1200 1176 -118 116 -244 231 -279
255 -136 91 -277 145 -619 234 -117 31 -253 69 -301 85 l-89 28 24 -71z"/>
</g>
</g>
</g>
</g>
</svg>

