<svg xmlns="http://www.w3.org/2000/svg" version="1.1" xmlns:xlink="http://www.w3.org/1999/xlink" xmlns:svgjs="http://svgjs.dev/svgjs" width="1000" height="1000" viewBox="0 0 1000 1000"><rect width="1000" height="1000" fill="#ffffff"></rect><g transform="matrix(0.7,0,0,0.7,149.57576679322108,421.4266194390866)"><svg viewBox="0 0 396 89" data-background-color="#ffffff" preserveAspectRatio="xMidYMid meet" height="224" width="1000" xmlns="http://www.w3.org/2000/svg" xmlns:xlink="http://www.w3.org/1999/xlink"><defs></defs><g id="tight-bounds" transform="matrix(1,0,0,1,0.2399947855492428,0.09841125491334424)"><svg viewBox="0 0 395.52 88.80317758487429" height="88.80317758487429" width="395.52"><g><svg viewBox="0 0 395.52 88.80317758487429" height="88.80317758487429" width="395.52"><g transform="matrix(1,0,0,1,0,53.41395243930194)"><svg viewBox="0 0 395.52 35.389225145572354" height="35.389225145572354" width="395.52"><g><svg viewBox="0 0 395.52 35.389225145572354" height="35.389225145572354" width="395.52"><g><svg viewBox="0 0 395.52 19.087257019438443" height="19.087257019438443" width="395.52"><g transform="matrix(1,0,0,1,0,0)"><svg width="395.52" viewBox="1 -35.5 740.72998046875 35.75" height="19.087257019438443" data-palette-color="#89939e"><path d="M14.5 0L10.8 0 10.8-31.65 1-31.65 1-35 24.2-35 24.2-31.65 14.5-31.65 14.5 0ZM53.85-35L53.85 0 50.1 0 50.1-16.55 33.5-16.55 33.5 0 29.75 0 29.75-35 33.5-35 33.5-19.8 50.1-19.8 50.1-35 53.85-35ZM81.8-3.25L81.8 0 62.95 0 62.95-35 81.8-35 81.8-31.75 66.7-31.75 66.7-20.65 80.55-20.65 80.55-17.3 66.7-17.3 66.7-3.25 81.8-3.25ZM106.29-35L106.29 0 102.54 0 102.54-35 106.29-35ZM140.24-35L140.24 0.05 136.14 0.05 119.29-28 119.29 0 115.39 0 115.39-35 119.29-35 136.49-5.9 136.49-35 140.24-35ZM159.29 0L155.59 0 155.59-31.65 145.79-31.65 145.79-35 168.99-35 168.99-31.65 159.29-31.65 159.29 0ZM193.38-3.25L193.38 0 174.53 0 174.53-35 193.38-35 193.38-31.75 178.28-31.75 178.28-20.65 192.13-20.65 192.13-17.3 178.28-17.3 178.28-3.25 193.38-3.25ZM208.48-16.45L208.48-16.45 205.38-16.45 205.38-0.05 201.63-0.05 201.63-35.05 211.73-35.05Q216.83-35.05 219.41-32.73 221.98-30.4 221.98-26.1L221.98-26.1Q221.98-23.1 219.91-20.6 217.83-18.1 214.78-17.7L214.78-17.7Q217.23-17.15 218.26-16.13 219.28-15.1 220.68-11.75L220.68-11.75 225.63-0.05 221.68-0.05 216.83-11.25Q215.48-14.4 213.81-15.43 212.13-16.45 208.48-16.45ZM211.53-31.85L211.53-31.85 205.38-31.85 205.38-19.65 211.03-19.65Q214.13-19.65 215.96-21.48 217.78-23.3 217.78-26.1 217.78-28.9 216.13-30.38 214.48-31.85 211.53-31.85ZM256.63-35L256.63 0.05 252.53 0.05 235.68-28 235.68 0 231.78 0 231.78-35 235.68-35 252.88-5.9 252.88-35 256.63-35ZM277.88-35L289.48 0 285.28 0 281.78-11.05 269.23-11.05 265.78 0 261.82 0 273.32-35 277.88-35ZM270.18-14.3L280.93-14.3 275.57-31.2 270.18-14.3ZM302.62 0L298.92 0 298.92-31.65 289.12-31.65 289.12-35 312.32-35 312.32-31.65 302.62-31.65 302.62 0ZM321.62-35L321.62 0 317.87 0 317.87-35 321.62-35ZM342.32 0.25L342.32 0.25Q335.47 0.25 331.97-4.83 328.47-9.9 328.47-17.75 328.47-25.6 331.99-30.55 335.52-35.5 342.34-35.5 349.17-35.5 352.72-30.55 356.27-25.6 356.27-17.75L356.27-17.75Q356.27-7 350.17-2.25L350.17-2.25Q346.92 0.25 342.32 0.25ZM342.42-32.25L342.42-32.25Q337.32-32.25 334.79-28 332.27-23.75 332.27-17.6 332.27-11.45 334.84-7.25 337.42-3.05 342.42-3.05 347.42-3.05 349.97-7.3 352.52-11.55 352.52-18L352.52-18Q352.52-26.1 347.97-30.1L347.97-30.1Q345.62-32.25 342.42-32.25ZM387.96-35L387.96 0.05 383.87 0.05 367.01-28 367.01 0 363.12 0 363.12-35 367.01-35 384.21-5.9 384.21-35 387.96-35ZM409.21-35L420.81 0 416.61 0 413.11-11.05 400.56-11.05 397.11 0 393.16 0 404.66-35 409.21-35ZM401.51-14.3L412.26-14.3 406.91-31.2 401.51-14.3ZM444.76-3.25L444.76 0 426.01 0 426.01-35 429.76-35 429.76-3.25 444.76-3.25ZM487.45-18.75L487.45-18.75Q487.45-10.3 482.55-5.15 477.65 0 469.45 0L469.45 0 462.15 0 462.15-35 471-35Q478.45-35 482.95-30.45 487.45-25.9 487.45-18.75ZM483.4-19.15L483.4-19.15Q483.4-25.05 479.8-28.4 476.2-31.75 471.2-31.75L471.2-31.75 466.2-31.75 466.2-3.25 469.9-3.25Q475.55-3.25 479.48-7.5 483.4-11.75 483.4-19.15ZM506.65-35L518.25 0 514.05 0 510.55-11.05 498-11.05 494.55 0 490.6 0 502.1-35 506.65-35ZM498.95-14.3L509.7-14.3 504.35-31.2 498.95-14.3ZM531.4 0L527.7 0 527.7-31.65 517.9-31.65 517.9-35 541.1-35 541.1-31.65 531.4-31.65 531.4 0ZM556.8-35L568.4 0 564.2 0 560.7-11.05 548.15-11.05 544.7 0 540.75 0 552.25-35 556.8-35ZM549.1-14.3L559.85-14.3 554.5-31.2 549.1-14.3ZM615.59-35L615.59 0 611.84 0 611.84-28.7 600.59-9.2 599.29-9.25 588.04-28.65 588.04 0 584.34 0 584.34-35 588.54-35 599.99-15.75 611.84-35 615.59-35ZM635.09-35L646.69 0 642.49 0 638.99-11.05 626.44-11.05 622.99 0 619.04 0 630.54-35 635.09-35ZM627.39-14.3L638.14-14.3 632.79-31.2 627.39-14.3ZM659.84 0L656.14 0 656.14-31.65 646.34-31.65 646.34-35 669.54-35 669.54-31.65 659.84-31.65 659.84 0ZM681.93-16.45L681.93-16.45 678.83-16.45 678.83-0.05 675.08-0.05 675.08-35.05 685.18-35.05Q690.28-35.05 692.86-32.73 695.43-30.4 695.43-26.1L695.43-26.1Q695.43-23.1 693.36-20.6 691.28-18.1 688.23-17.7L688.23-17.7Q690.68-17.15 691.71-16.13 692.73-15.1 694.13-11.75L694.13-11.75 699.08-0.05 695.13-0.05 690.28-11.25Q688.93-14.4 687.26-15.43 685.58-16.45 681.93-16.45ZM684.98-31.85L684.98-31.85 678.83-31.85 678.83-19.65 684.48-19.65Q687.58-19.65 689.41-21.48 691.23-23.3 691.23-26.1 691.23-28.9 689.58-30.38 687.93-31.85 684.98-31.85ZM708.98-35L708.98 0 705.23 0 705.23-35 708.98-35ZM730.48-18.4L741.73 0 737.13 0 728.23-15.75 719.08 0 714.53 0 726.13-18.4 715.58-35.05 720.33-35.05 728.38-21.2 736.68-35.05 741.18-35.05 730.48-18.4Z" opacity="1" transform="matrix(1,0,0,1,0,0)" fill="#89939e" class="undefined-text-0" data-fill-palette-color="primary" id="text-0"></path></svg></g></svg></g><g transform="matrix(1,0,0,1,75.64787920498947,23.593300307559392)"><svg viewBox="0 0 244.22424159002105 11.795924838012958" height="11.795924838012958" width="244.22424159002105"><g transform="matrix(1,0,0,1,0,0)"><svg width="244.22424159002105" viewBox="0.75 -39.54999923706055 829.1199951171875 40.04999923706055" height="11.795924838012958" data-palette-color="#89939e"><path d="M16.25 0L16.25 0Q15.6 0 15.18-0.43 14.75-0.85 14.75-1.5L14.75-1.5 14.75-39.05 17.75-39.05 17.75-1.5Q17.75-0.85 17.32-0.43 16.9 0 16.25 0ZM30.4-36.35L2.1-36.35Q1.5-36.35 1.13-36.73 0.75-37.1 0.75-37.7L0.75-37.7Q0.75-38.3 1.13-38.68 1.5-39.05 2.1-39.05L2.1-39.05 30.4-39.05Q31-39.05 31.38-38.68 31.75-38.3 31.75-37.7L31.75-37.7Q31.75-37.1 31.38-36.73 31-36.35 30.4-36.35L30.4-36.35ZM60.65 0L60.65 0Q60 0 59.57-0.43 59.15-0.85 59.15-1.5L59.15-1.5 59.15-14.95Q59.15-18.25 57.87-20.4 56.6-22.55 54.42-23.63 52.25-24.7 49.5-24.7L49.5-24.7Q46.8-24.7 44.65-23.68 42.5-22.65 41.25-20.85 40-19.05 40-16.8L40-16.8 37.5-16.8Q37.7-19.9 39.35-22.38 41-24.85 43.65-26.28 46.3-27.7 49.5-27.7L49.5-27.7Q53.1-27.7 55.97-26.23 58.85-24.75 60.5-21.93 62.15-19.1 62.15-14.95L62.15-14.95 62.15-1.5Q62.15-0.85 61.72-0.43 61.3 0 60.65 0ZM38.5 0L38.5 0Q37.85 0 37.42-0.43 37-0.85 37-1.5L37-1.5 37-25.85Q37-26.55 37.42-26.95 37.85-27.35 38.5-27.35L38.5-27.35Q39.2-27.35 39.6-26.95 40-26.55 40-25.85L40-25.85 40-1.5Q40-0.85 39.6-0.43 39.2 0 38.5 0ZM38.5-12L38.5-12Q37.85-12 37.42-12.43 37-12.85 37-13.5L37-13.5 37-37.55Q37-38.25 37.42-38.65 37.85-39.05 38.5-39.05L38.5-39.05Q39.2-39.05 39.6-38.65 40-38.25 40-37.55L40-37.55 40-13.5Q40-12.85 39.6-12.43 39.2-12 38.5-12ZM82.75 0.25L82.75 0.25Q78.8 0.25 75.72-1.53 72.65-3.3 70.9-6.45 69.15-9.6 69.15-13.65L69.15-13.65Q69.15-17.75 70.8-20.88 72.45-24 75.35-25.8 78.25-27.6 82-27.6L82-27.6Q85.7-27.6 88.55-25.88 91.4-24.15 93-21.13 94.6-18.1 94.6-14.15L94.6-14.15Q94.6-13.5 94.2-13.13 93.8-12.75 93.15-12.75L93.15-12.75 71.15-12.75 71.15-15.35 93.95-15.35 91.75-13.7Q91.85-16.95 90.65-19.45 89.45-21.95 87.22-23.38 85-24.8 82-24.8L82-24.8Q79.15-24.8 76.92-23.38 74.7-21.95 73.42-19.45 72.15-16.95 72.15-13.65L72.15-13.65Q72.15-10.4 73.5-7.9 74.85-5.4 77.25-3.98 79.65-2.55 82.75-2.55L82.75-2.55Q84.7-2.55 86.67-3.23 88.65-3.9 89.8-5L89.8-5Q90.2-5.4 90.77-5.43 91.35-5.45 91.75-5.1L91.75-5.1Q92.3-4.65 92.32-4.1 92.35-3.55 91.85-3.1L91.85-3.1Q90.25-1.65 87.67-0.7 85.1 0.25 82.75 0.25ZM141.79 0L117.74 0Q117.09 0 116.67-0.43 116.24-0.85 116.24-1.5L116.24-1.5 116.24-37.55Q116.24-38.2 116.67-38.63 117.09-39.05 117.74-39.05L117.74-39.05 141.79-39.05Q142.39-39.05 142.84-38.63 143.29-38.2 143.29-37.55L143.29-37.55Q143.29-36.95 142.84-36.5 142.39-36.05 141.79-36.05L141.79-36.05 119.24-36.05 119.24-21.05 135.79-21.05Q136.44-21.05 136.87-20.63 137.29-20.2 137.29-19.55L137.29-19.55Q137.29-18.9 136.87-18.45 136.44-18 135.79-18L135.79-18 119.24-18 119.24-3 141.79-3Q142.39-3 142.84-2.55 143.29-2.1 143.29-1.5L143.29-1.5Q143.29-0.85 142.84-0.43 142.39 0 141.79 0L141.79 0ZM173.69 0L173.69 0Q173.04 0 172.61-0.43 172.19-0.85 172.19-1.5L172.19-1.5 172.19-14.95Q172.19-18.25 170.91-20.4 169.64-22.55 167.46-23.63 165.29-24.7 162.54-24.7L162.54-24.7Q159.84-24.7 157.69-23.68 155.54-22.65 154.29-20.85 153.04-19.05 153.04-16.8L153.04-16.8 150.54-16.8Q150.74-19.9 152.39-22.38 154.04-24.85 156.69-26.28 159.34-27.7 162.54-27.7L162.54-27.7Q166.14-27.7 169.01-26.23 171.89-24.75 173.54-21.93 175.19-19.1 175.19-14.95L175.19-14.95 175.19-1.5Q175.19-0.85 174.76-0.43 174.34 0 173.69 0ZM151.54 0L151.54 0Q150.89 0 150.46-0.43 150.04-0.85 150.04-1.5L150.04-1.5 150.04-25.85Q150.04-26.55 150.46-26.95 150.89-27.35 151.54-27.35L151.54-27.35Q152.24-27.35 152.64-26.95 153.04-26.55 153.04-25.85L153.04-25.85 153.04-1.5Q153.04-0.85 152.64-0.43 152.24 0 151.54 0ZM196.04 0L194.89 0Q192.14-0.05 189.99-1.28 187.84-2.5 186.64-4.67 185.44-6.85 185.44-9.6L185.44-9.6 185.44-34.5Q185.44-35.2 185.86-35.63 186.29-36.05 186.94-36.05L186.94-36.05Q187.64-36.05 188.06-35.63 188.49-35.2 188.49-34.5L188.49-34.5 188.49-9.6Q188.49-6.7 190.29-4.88 192.09-3.05 194.94-3.05L194.94-3.05 196.04-3.05Q196.74-3.05 197.16-2.63 197.59-2.2 197.59-1.5L197.59-1.5Q197.59-0.85 197.16-0.43 196.74 0 196.04 0L196.04 0ZM195.09-23.65L181.54-23.65Q180.94-23.65 180.56-24.03 180.19-24.4 180.19-25L180.19-25Q180.19-25.6 180.56-25.98 180.94-26.35 181.54-26.35L181.54-26.35 195.09-26.35Q195.69-26.35 196.06-25.98 196.44-25.6 196.44-25L196.44-25Q196.44-24.4 196.06-24.03 195.69-23.65 195.09-23.65L195.09-23.65ZM206.33 0L206.33 0Q205.68 0 205.26-0.43 204.83-0.85 204.83-1.5L204.83-1.5 204.83-25.85Q204.83-26.55 205.26-26.95 205.68-27.35 206.33-27.35L206.33-27.35Q207.03-27.35 207.43-26.95 207.83-26.55 207.83-25.85L207.83-25.85 207.83-1.5Q207.83-0.85 207.43-0.43 207.03 0 206.33 0ZM206.28-33.1L206.28-33.1Q205.33-33.1 204.66-33.77 203.98-34.45 203.98-35.45L203.98-35.45Q203.98-36.6 204.71-37.18 205.43-37.75 206.33-37.75L206.33-37.75Q207.18-37.75 207.91-37.18 208.63-36.6 208.63-35.45L208.63-35.45Q208.63-34.45 207.96-33.77 207.28-33.1 206.28-33.1ZM220.83-16.7L218.83-16.7Q219.13-19.9 220.58-22.38 222.03-24.85 224.33-26.25 226.63-27.65 229.43-27.65L229.43-27.65Q231.33-27.65 232.38-27.2 233.43-26.75 233.18-25.6L233.18-25.6Q233.03-24.85 232.48-24.7 231.93-24.55 231.16-24.68 230.38-24.8 229.43-24.8L229.43-24.8Q226.93-24.8 224.98-23.75 223.03-22.7 221.93-20.88 220.83-19.05 220.83-16.7L220.83-16.7ZM219.33 0L219.33 0Q218.68 0 218.26-0.43 217.83-0.85 217.83-1.5L217.83-1.5 217.83-25.85Q217.83-26.55 218.26-26.95 218.68-27.35 219.33-27.35L219.33-27.35Q220.03-27.35 220.43-26.95 220.83-26.55 220.83-25.85L220.83-25.85 220.83-1.5Q220.83-0.85 220.43-0.43 220.03 0 219.33 0ZM249.83 0.25L249.83 0.25Q245.88 0.25 242.8-1.53 239.73-3.3 237.98-6.45 236.23-9.6 236.23-13.65L236.23-13.65Q236.23-17.75 237.88-20.88 239.53-24 242.43-25.8 245.33-27.6 249.08-27.6L249.08-27.6Q252.78-27.6 255.63-25.88 258.48-24.15 260.08-21.13 261.68-18.1 261.68-14.15L261.68-14.15Q261.68-13.5 261.28-13.13 260.88-12.75 260.23-12.75L260.23-12.75 238.23-12.75 238.23-15.35 261.03-15.35 258.83-13.7Q258.93-16.95 257.73-19.45 256.53-21.95 254.3-23.38 252.08-24.8 249.08-24.8L249.08-24.8Q246.23-24.8 244-23.38 241.78-21.95 240.5-19.45 239.23-16.95 239.23-13.65L239.23-13.65Q239.23-10.4 240.58-7.9 241.93-5.4 244.33-3.98 246.73-2.55 249.83-2.55L249.83-2.55Q251.78-2.55 253.75-3.23 255.73-3.9 256.88-5L256.88-5Q257.28-5.4 257.85-5.43 258.43-5.45 258.83-5.1L258.83-5.1Q259.38-4.65 259.4-4.1 259.43-3.55 258.93-3.1L258.93-3.1Q257.33-1.65 254.75-0.7 252.18 0.25 249.83 0.25ZM288.92 0L288.92 0Q288.42 0 288.05-0.25 287.67-0.5 287.52-0.95L287.52-0.95 279.42-25.2Q279.22-26.3 279.52-26.83 279.82-27.35 280.57-27.35L280.57-27.35Q280.97-27.35 281.37-27.13 281.77-26.9 281.97-26.45L281.97-26.45 289.37-4.15 288.72-4.15 295.52-26.15Q295.67-26.7 296.07-27.03 296.47-27.35 297.02-27.35L297.02-27.35Q297.57-27.35 297.95-27.03 298.32-26.7 298.52-26.15L298.52-26.15 305.52-4.15 304.62-4.15 312.02-26.45Q312.42-27.35 313.42-27.35L313.42-27.35Q314.32-27.35 314.65-26.65 314.97-25.95 314.62-25.2L314.62-25.2 306.57-0.95Q306.42-0.5 306.05-0.25 305.67 0 305.12 0L305.12 0Q304.62 0 304.22-0.25 303.82-0.5 303.72-0.95L303.72-0.95 296.57-23.15 297.22-23.15 290.32-0.95Q290.12-0.45 289.75-0.23 289.37 0 288.92 0ZM331.77 0.3L331.77 0.3Q327.77 0.3 324.6-1.53 321.42-3.35 319.6-6.53 317.77-9.7 317.77-13.65L317.77-13.65Q317.77-17.65 319.6-20.83 321.42-24 324.6-25.83 327.77-27.65 331.77-27.65L331.77-27.65Q335.77-27.65 338.92-25.83 342.07-24 343.9-20.83 345.72-17.65 345.72-13.65L345.72-13.65Q345.72-9.7 343.9-6.53 342.07-3.35 338.92-1.53 335.77 0.3 331.77 0.3ZM331.77-2.5L331.77-2.5Q334.92-2.5 337.4-3.98 339.87-5.45 341.3-7.98 342.72-10.5 342.72-13.7L342.72-13.7Q342.72-16.85 341.3-19.38 339.87-21.9 337.4-23.38 334.92-24.85 331.77-24.85L331.77-24.85Q328.67-24.85 326.17-23.38 323.67-21.9 322.22-19.38 320.77-16.85 320.77-13.65L320.77-13.65Q320.77-10.5 322.22-7.98 323.67-5.45 326.17-3.98 328.67-2.5 331.77-2.5ZM356.22-16.7L354.22-16.7Q354.52-19.9 355.97-22.38 357.42-24.85 359.72-26.25 362.02-27.65 364.82-27.65L364.82-27.65Q366.72-27.65 367.77-27.2 368.82-26.75 368.57-25.6L368.57-25.6Q368.42-24.85 367.87-24.7 367.32-24.55 366.54-24.68 365.77-24.8 364.82-24.8L364.82-24.8Q362.32-24.8 360.37-23.75 358.42-22.7 357.32-20.88 356.22-19.05 356.22-16.7L356.22-16.7ZM354.72 0L354.72 0Q354.07 0 353.64-0.43 353.22-0.85 353.22-1.5L353.22-1.5 353.22-25.85Q353.22-26.55 353.64-26.95 354.07-27.35 354.72-27.35L354.72-27.35Q355.42-27.35 355.82-26.95 356.22-26.55 356.22-25.85L356.22-25.85 356.22-1.5Q356.22-0.85 355.82-0.43 355.42 0 354.72 0ZM381.62 0L380.62 0Q378.72 0 377.24-1.05 375.76-2.1 374.94-3.95 374.12-5.8 374.12-8.25L374.12-8.25 374.12-37.55Q374.12-38.25 374.54-38.65 374.97-39.05 375.62-39.05L375.62-39.05Q376.31-39.05 376.72-38.65 377.12-38.25 377.12-37.55L377.12-37.55 377.12-8.25Q377.12-5.95 378.09-4.48 379.06-3 380.62-3L380.62-3 381.87-3Q382.42-3 382.76-2.6 383.12-2.2 383.12-1.5L383.12-1.5Q383.12-0.85 382.72-0.43 382.31 0 381.62 0L381.62 0ZM399.61 0.3L399.61 0.3Q395.61 0.3 392.44-1.53 389.26-3.35 387.44-6.53 385.61-9.7 385.61-13.7L385.61-13.7Q385.61-17.7 387.44-20.85 389.26-24 392.44-25.83 395.61-27.65 399.61-27.65L399.61-27.65Q403.21-27.65 406.09-26.1 408.96-24.55 410.56-21.95L410.56-21.95 410.56-37.55Q410.56-38.25 410.99-38.65 411.41-39.05 412.06-39.05L412.06-39.05Q412.76-39.05 413.16-38.65 413.56-38.25 413.56-37.55L413.56-37.55 413.56-13.4Q413.51-9.5 411.66-6.4 409.81-3.3 406.69-1.5 403.56 0.3 399.61 0.3ZM399.61-2.5L399.61-2.5Q402.76-2.5 405.24-3.98 407.71-5.45 409.14-7.98 410.56-10.5 410.56-13.7L410.56-13.7Q410.56-16.9 409.14-19.4 407.71-21.9 405.24-23.38 402.76-24.85 399.61-24.85L399.61-24.85Q396.51-24.85 394.01-23.38 391.51-21.9 390.06-19.4 388.61-16.9 388.61-13.7L388.61-13.7Q388.61-10.5 390.06-7.98 391.51-5.45 394.01-3.98 396.51-2.5 399.61-2.5ZM435.16 0L435.16 0Q434.21 0 433.83-0.75 433.46-1.5 433.81-2.15L433.81-2.15 448.96-38Q449.36-39.05 450.41-39.05L450.41-39.05Q451.41-39.05 451.86-38L451.86-38 467.06-2.15Q467.46-1.45 467.01-0.73 466.56 0 465.71 0L465.71 0Q465.21 0 464.88-0.23 464.56-0.45 464.31-0.95L464.31-0.95 449.61-36 451.21-36 436.56-0.95Q436.36-0.45 436.01-0.23 435.66 0 435.16 0ZM462.01-9.8L438.86-9.8 440.06-12.5 460.86-12.5 462.01-9.8ZM478.85 0L477.85 0Q475.95 0 474.48-1.05 473-2.1 472.18-3.95 471.35-5.8 471.35-8.25L471.35-8.25 471.35-37.55Q471.35-38.25 471.78-38.65 472.2-39.05 472.85-39.05L472.85-39.05Q473.55-39.05 473.95-38.65 474.35-38.25 474.35-37.55L474.35-37.55 474.35-8.25Q474.35-5.95 475.33-4.48 476.3-3 477.85-3L477.85-3 479.1-3Q479.65-3 480-2.6 480.35-2.2 480.35-1.5L480.35-1.5Q480.35-0.85 479.95-0.43 479.55 0 478.85 0L478.85 0ZM492.35 0L491.35 0Q489.45 0 487.98-1.05 486.5-2.1 485.68-3.95 484.85-5.8 484.85-8.25L484.85-8.25 484.85-37.55Q484.85-38.25 485.28-38.65 485.7-39.05 486.35-39.05L486.35-39.05Q487.05-39.05 487.45-38.65 487.85-38.25 487.85-37.55L487.85-37.55 487.85-8.25Q487.85-5.95 488.83-4.48 489.8-3 491.35-3L491.35-3 492.6-3Q493.15-3 493.5-2.6 493.85-2.2 493.85-1.5L493.85-1.5Q493.85-0.85 493.45-0.43 493.05 0 492.35 0L492.35 0ZM516 0L516 0Q515.35 0 514.92-0.43 514.5-0.85 514.5-1.5L514.5-1.5 514.5-37.55Q514.5-38.2 514.92-38.63 515.35-39.05 516-39.05L516-39.05Q516.65-39.05 517.07-38.63 517.5-38.2 517.5-37.55L517.5-37.55 517.5-1.5Q517.5-0.85 517.07-0.43 516.65 0 516 0ZM550.64 0L550.64 0Q549.99 0 549.57-0.43 549.14-0.85 549.14-1.5L549.14-1.5 549.14-14.95Q549.14-18.25 547.87-20.4 546.59-22.55 544.42-23.63 542.24-24.7 539.49-24.7L539.49-24.7Q536.79-24.7 534.64-23.68 532.49-22.65 531.24-20.85 529.99-19.05 529.99-16.8L529.99-16.8 527.49-16.8Q527.69-19.9 529.34-22.38 530.99-24.85 533.64-26.28 536.29-27.7 539.49-27.7L539.49-27.7Q543.09-27.7 545.97-26.23 548.84-24.75 550.49-21.93 552.14-19.1 552.14-14.95L552.14-14.95 552.14-1.5Q552.14-0.85 551.72-0.43 551.29 0 550.64 0ZM528.49 0L528.49 0Q527.84 0 527.42-0.43 526.99-0.85 526.99-1.5L526.99-1.5 526.99-25.85Q526.99-26.55 527.42-26.95 527.84-27.35 528.49-27.35L528.49-27.35Q529.19-27.35 529.59-26.95 529.99-26.55 529.99-25.85L529.99-25.85 529.99-1.5Q529.99-0.85 529.59-0.43 529.19 0 528.49 0ZM593.84 0.5L593.84 0.5Q589.54 0.5 585.89-1 582.24-2.5 579.51-5.23 576.79-7.95 575.29-11.6 573.79-15.25 573.79-19.55L573.79-19.55Q573.79-23.85 575.29-27.48 576.79-31.1 579.51-33.83 582.24-36.55 585.89-38.05 589.54-39.55 593.84-39.55L593.84-39.55Q598.14-39.55 601.76-38.05 605.39-36.55 608.11-33.83 610.84-31.1 612.34-27.48 613.84-23.85 613.84-19.55L613.84-19.55Q613.84-15.25 612.34-11.6 610.84-7.95 608.11-5.23 605.39-2.5 601.76-1 598.14 0.5 593.84 0.5ZM593.84-2.5L593.84-2.5Q597.44-2.5 600.54-3.78 603.64-5.05 605.96-7.38 608.29-9.7 609.56-12.8 610.84-15.9 610.84-19.55L610.84-19.55Q610.84-23.15 609.56-26.25 608.29-29.35 605.96-31.68 603.64-34 600.54-35.27 597.44-36.55 593.84-36.55L593.84-36.55Q590.19-36.55 587.09-35.27 583.99-34 581.66-31.68 579.34-29.35 578.06-26.25 576.79-23.15 576.79-19.55L576.79-19.55Q576.79-15.9 578.06-12.8 579.34-9.7 581.66-7.38 583.99-5.05 587.09-3.78 590.19-2.5 593.84-2.5ZM644.99 0L644.99 0Q644.34 0 643.91-0.43 643.49-0.85 643.49-1.5L643.49-1.5 643.49-14.95Q643.49-18.25 642.21-20.4 640.94-22.55 638.76-23.63 636.59-24.7 633.84-24.7L633.84-24.7Q631.14-24.7 628.99-23.68 626.84-22.65 625.59-20.85 624.34-19.05 624.34-16.8L624.34-16.8 621.84-16.8Q622.04-19.9 623.69-22.38 625.34-24.85 627.99-26.28 630.64-27.7 633.84-27.7L633.84-27.7Q637.44-27.7 640.31-26.23 643.19-24.75 644.84-21.93 646.49-19.1 646.49-14.95L646.49-14.95 646.49-1.5Q646.49-0.85 646.06-0.43 645.64 0 644.99 0ZM622.84 0L622.84 0Q622.19 0 621.76-0.43 621.34-0.85 621.34-1.5L621.34-1.5 621.34-25.85Q621.34-26.55 621.76-26.95 622.19-27.35 622.84-27.35L622.84-27.35Q623.54-27.35 623.94-26.95 624.34-26.55 624.34-25.85L624.34-25.85 624.34-1.5Q624.34-0.85 623.94-0.43 623.54 0 622.84 0ZM667.08 0.25L667.08 0.25Q663.13 0.25 660.06-1.53 656.98-3.3 655.23-6.45 653.48-9.6 653.48-13.65L653.48-13.65Q653.48-17.75 655.13-20.88 656.78-24 659.68-25.8 662.58-27.6 666.33-27.6L666.33-27.6Q670.03-27.6 672.88-25.88 675.73-24.15 677.33-21.13 678.93-18.1 678.93-14.15L678.93-14.15Q678.93-13.5 678.53-13.13 678.13-12.75 677.48-12.75L677.48-12.75 655.48-12.75 655.48-15.35 678.28-15.35 676.08-13.7Q676.18-16.95 674.98-19.45 673.78-21.95 671.56-23.38 669.33-24.8 666.33-24.8L666.33-24.8Q663.48-24.8 661.26-23.38 659.03-21.95 657.76-19.45 656.48-16.95 656.48-13.65L656.48-13.65Q656.48-10.4 657.83-7.9 659.18-5.4 661.58-3.98 663.98-2.55 667.08-2.55L667.08-2.55Q669.03-2.55 671.01-3.23 672.98-3.9 674.13-5L674.13-5Q674.53-5.4 675.11-5.43 675.68-5.45 676.08-5.1L676.08-5.1Q676.63-4.65 676.66-4.1 676.68-3.55 676.18-3.1L676.18-3.1Q674.58-1.65 672.01-0.7 669.43 0.25 667.08 0.25ZM702.08 0L702.08 0Q701.43 0 701-0.43 700.58-0.85 700.58-1.5L700.58-1.5 700.58-37.55Q700.58-38.25 701-38.65 701.43-39.05 702.08-39.05L702.08-39.05 712.08-39.05Q715.73-39.05 718.55-37.45 721.38-35.85 722.98-33.02 724.58-30.2 724.58-26.55L724.58-26.55Q724.58-22.9 722.98-20.05 721.38-17.2 718.55-15.6 715.73-14 712.08-14L712.08-14 703.58-14 703.58-1.5Q703.58-0.85 703.18-0.43 702.78 0 702.08 0ZM703.58-36.05L703.58-17 712.08-17Q714.88-17 717-18.23 719.13-19.45 720.35-21.6 721.58-23.75 721.58-26.55L721.58-26.55Q721.58-29.35 720.35-31.48 719.13-33.6 717-34.83 714.88-36.05 712.08-36.05L712.08-36.05 703.58-36.05ZM736.83 0L735.83 0Q733.93 0 732.45-1.05 730.98-2.1 730.15-3.95 729.33-5.8 729.33-8.25L729.33-8.25 729.33-37.55Q729.33-38.25 729.75-38.65 730.18-39.05 730.83-39.05L730.83-39.05Q731.53-39.05 731.93-38.65 732.33-38.25 732.33-37.55L732.33-37.55 732.33-8.25Q732.33-5.95 733.3-4.48 734.28-3 735.83-3L735.83-3 737.08-3Q737.63-3 737.98-2.6 738.33-2.2 738.33-1.5L738.33-1.5Q738.33-0.85 737.93-0.43 737.53 0 736.83 0L736.83 0ZM754.82 0.3L754.82 0.3Q750.82 0.3 747.65-1.53 744.47-3.35 742.65-6.53 740.82-9.7 740.82-13.65L740.82-13.65Q740.82-17.65 742.65-20.83 744.47-24 747.65-25.83 750.82-27.65 754.82-27.65L754.82-27.65Q758.82-27.65 761.97-25.83 765.12-24 766.95-20.83 768.77-17.65 768.77-13.65L768.77-13.65 767.52-11.65Q767.52-8.25 765.85-5.55 764.17-2.85 761.32-1.28 758.47 0.3 754.82 0.3ZM754.82-2.5L754.82-2.5Q757.97-2.5 760.45-3.98 762.92-5.45 764.35-7.98 765.77-10.5 765.77-13.65L765.77-13.65Q765.77-16.85 764.35-19.38 762.92-21.9 760.45-23.38 757.97-24.85 754.82-24.85L754.82-24.85Q751.72-24.85 749.22-23.38 746.72-21.9 745.27-19.38 743.82-16.85 743.82-13.65L743.82-13.65Q743.82-10.5 745.27-7.98 746.72-5.45 749.22-3.98 751.72-2.5 754.82-2.5ZM767.32 0L767.32 0Q766.62 0 766.2-0.43 765.77-0.85 765.77-1.5L765.77-1.5 765.77-10.65 766.72-13.65 768.77-13.65 768.77-1.5Q768.77-0.85 768.37-0.43 767.97 0 767.32 0ZM788.37 0.3L788.37 0.3Q784.47 0.3 781.4-1.55 778.32-3.4 776.55-6.55 774.77-9.7 774.77-13.65L774.77-13.65Q774.77-17.65 776.42-20.8 778.07-23.95 780.97-25.78 783.87-27.6 787.62-27.6L787.62-27.6Q790.82-27.6 793.47-26.38 796.12-25.15 798.07-22.65L798.07-22.65Q798.47-22.15 798.37-21.6 798.27-21.05 797.72-20.7L797.72-20.7Q797.27-20.35 796.72-20.43 796.17-20.5 795.77-21L795.77-21Q792.57-24.8 787.62-24.8L787.62-24.8Q784.67-24.8 782.45-23.35 780.22-21.9 779-19.4 777.77-16.9 777.77-13.65L777.77-13.65Q777.77-10.5 779.12-7.98 780.47-5.45 782.85-3.98 785.22-2.5 788.37-2.5L788.37-2.5Q790.42-2.5 792.25-3.1 794.07-3.7 795.42-4.95L795.42-4.95Q795.87-5.35 796.42-5.4 796.97-5.45 797.37-5.05L797.37-5.05Q797.87-4.6 797.9-4.03 797.92-3.45 797.47-3.05L797.47-3.05Q793.82 0.3 788.37 0.3ZM818.02 0.25L818.02 0.25Q814.07 0.25 810.99-1.53 807.92-3.3 806.17-6.45 804.42-9.6 804.42-13.65L804.42-13.65Q804.42-17.75 806.07-20.88 807.72-24 810.62-25.8 813.52-27.6 817.27-27.6L817.27-27.6Q820.97-27.6 823.82-25.88 826.67-24.15 828.27-21.13 829.87-18.1 829.87-14.15L829.87-14.15Q829.87-13.5 829.47-13.13 829.07-12.75 828.42-12.75L828.42-12.75 806.42-12.75 806.42-15.35 829.22-15.35 827.02-13.7Q827.12-16.95 825.92-19.45 824.72-21.95 822.49-23.38 820.27-24.8 817.27-24.8L817.27-24.8Q814.42-24.8 812.19-23.38 809.97-21.95 808.69-19.45 807.42-16.95 807.42-13.65L807.42-13.65Q807.42-10.4 808.77-7.9 810.12-5.4 812.52-3.98 814.92-2.55 818.02-2.55L818.02-2.55Q819.97-2.55 821.94-3.23 823.92-3.9 825.07-5L825.07-5Q825.47-5.4 826.04-5.43 826.62-5.45 827.02-5.1L827.02-5.1Q827.57-4.65 827.59-4.1 827.62-3.55 827.12-3.1L827.12-3.1Q825.52-1.65 822.94-0.7 820.37 0.25 818.02 0.25Z" opacity="1" transform="matrix(1,0,0,1,0,0)" fill="#89939e" class="undefined-text-1" data-fill-palette-color="secondary" id="text-1"></path></svg></g></svg></g></svg></g></svg></g><g transform="matrix(1,0,0,1,139.20069481386443,0)"><svg viewBox="0 0 117.1186103722711 48.90790915118099" height="48.90790915118099" width="117.1186103722711"><g><svg xmlns="http://www.w3.org/2000/svg" xmlns:xlink="http://www.w3.org/1999/xlink" version="1.1" x="8" y="0" viewBox="0.9010000228881836 24.104000091552734 97.75699615478516 47.28200149536133" enable-background="new 0 0 100 100" xml:space="preserve" height="48.90790915118099" width="101.1186103722711" class="icon-icon-0" data-fill-palette-color="accent" id="icon-0"><g fill="#89939e" data-fill-palette-color="accent"><polygon points="29.654,53.495 28.375,52.217 27.098,52.217 24.542,49.662 23.265,49.662 21.986,48.384 19.431,48.384    18.792,49.022 17.514,49.022 14.319,45.828 13.042,45.828 11.763,44.55 11.763,43.272 13.042,41.995 16.875,41.995 21.986,36.883    23.265,36.883 25.82,34.327 27.098,34.327 28.375,33.049 27.098,31.771 25.82,31.771 25.82,30.494 24.542,30.494 21.348,33.688    18.792,31.132 20.069,29.854 21.348,29.854 21.986,29.215 23.265,29.215 24.542,27.938 27.098,30.494 28.375,29.215 28.375,27.938    27.098,26.66 29.654,24.104 25.82,24.104 23.265,26.66 21.986,26.66 20.708,27.938 19.431,26.66 15.597,26.66 14.319,27.938    10.486,27.938 9.847,27.299 6.013,27.299 5.374,27.938 4.097,27.938 0.901,31.132 1.541,31.771 2.819,31.771 4.097,30.494    6.652,30.494 7.93,31.771 7.93,34.327 6.652,35.605 6.652,36.883 5.374,38.161 5.374,39.438 7.93,41.995 7.93,43.272    11.763,47.106 13.042,47.106 15.597,49.662 16.875,49.662 17.514,50.301 17.514,51.577 16.875,52.217 16.875,54.773 17.514,55.411    17.514,56.689 20.708,59.884 20.708,66.274 21.986,67.552 21.986,70.107 23.265,71.386 24.542,71.386 24.542,70.107 23.903,69.469    23.903,68.189 25.82,66.274 25.82,64.995 28.375,62.44 28.376,61.163 30.931,58.606 30.932,57.329 32.209,56.051 32.209,54.773    30.931,53.495  " fill="#89939e" data-fill-palette-color="accent"></polygon><polygon points="41.793,24.743 41.155,24.104 30.931,24.104 29.654,25.382 30.292,26.021 31.571,26.021 32.209,26.66    32.209,27.938 30.931,29.215 32.209,30.494 33.487,30.494 34.766,29.215 36.043,29.215 37.321,27.938 38.599,27.938  " fill="#89939e" data-fill-palette-color="accent"></polygon><polygon points="57.768,58.606 57.768,61.163 58.406,61.801 59.045,61.163 59.045,59.884 60.323,58.606 60.323,57.329    59.684,56.689  " fill="#89939e" data-fill-palette-color="accent"></polygon><polygon points="80.769,54.773 79.491,54.773 75.657,50.939 75.657,52.217 78.851,55.411 81.407,55.411  " fill="#89939e" data-fill-palette-color="accent"></polygon><polygon points="82.685,50.301 81.407,50.301 81.407,51.577 80.13,52.856 80.769,53.495 82.046,53.495 82.685,52.856    82.685,51.577 83.325,50.939  " fill="#89939e" data-fill-palette-color="accent"></polygon><rect x="84.603" y="49.662" width="1.277" height="1.278" fill="#89939e" data-fill-palette-color="accent"></rect><polygon points="89.074,68.189 89.714,67.552 88.436,67.552  " fill="#89939e" data-fill-palette-color="accent"></polygon><polygon points="89.074,52.856 88.436,53.495 87.157,52.217 87.157,53.495 87.797,54.135 89.074,54.135 90.353,55.411    91.63,55.411 92.27,56.051 92.27,54.773 90.353,52.856  " fill="#89939e" data-fill-palette-color="accent"></polygon><polygon points="92.27,61.163 92.27,59.884 91.63,59.245 91.63,56.689 90.991,56.051 90.353,56.689 90.353,57.968 89.714,58.606    87.797,56.689 87.157,57.329 85.88,57.329 83.325,59.884 82.046,59.884 80.769,61.163 80.768,63.718 80.13,64.357 80.769,64.995    83.325,64.995 84.603,63.718 85.88,63.718 88.436,66.274 89.714,66.274 92.908,63.079 92.908,61.801  " fill="#89939e" data-fill-palette-color="accent"></polygon><rect x="84.393" y="39.306" transform="matrix(0.707 -0.7072 0.7072 0.707 -2.8629 72.6054)" width="3.613" height="0.904" fill="#89939e" data-fill-palette-color="accent"></rect><polygon points="41.147,34.327 41.147,34.327 42.425,34.327 43.703,33.049 43.703,31.771 43.703,31.771 42.425,31.771    41.147,33.049  " fill="#89939e" data-fill-palette-color="accent"></polygon><polygon points="75.657,49.662 78.212,52.217 78.212,50.939 76.296,49.022 76.936,48.384 78.212,49.662 79.491,48.384    79.491,47.106 78.212,45.828 79.491,44.55 80.769,44.55 82.046,43.272 82.046,40.716 80.769,39.438 80.769,38.161 81.407,37.521    82.046,38.161 83.325,38.161 84.603,36.883 84.603,34.327 82.046,31.771 84.603,31.771 85.88,30.494 89.074,33.688 89.074,31.132    90.991,29.215 89.714,27.938 80.769,27.938 80.13,27.299 75.02,27.299 74.379,26.66 70.547,26.66 69.268,25.382 64.155,25.382    62.879,26.66 61.6,26.66 60.323,27.938 55.211,27.938 54.573,28.577 53.935,27.938 48.822,27.938 45.627,31.132 46.267,31.771    46.266,33.049 44.981,34.327 43.703,34.327 43.064,34.966 43.703,35.605 43.703,36.883 41.147,36.883 40.508,37.521 40.508,38.799    41.154,39.438 42.433,39.438 44.988,36.883 46.267,36.883 46.905,36.244 48.182,37.521 48.822,36.883 50.1,38.161 51.377,38.161    52.655,39.438 55.211,39.438 55.211,40.716 54.572,41.355 52.017,41.355 51.377,40.716 50.099,40.716 49.461,41.355 48.822,40.716    47.544,40.716 46.267,39.438 43.71,39.438 43.072,40.078 41.793,40.078 38.599,43.272 38.599,48.384 41.155,50.939 43.71,50.939    44.35,50.301 45.627,50.301 46.267,50.939 46.267,53.495 48.182,55.411 48.182,56.689 47.544,57.329 47.544,59.884 48.182,60.523    48.182,61.801 48.822,62.44 48.822,63.718 50.1,64.995 51.377,64.995 53.935,62.44 53.935,61.163 57.128,57.968 57.128,56.689    56.489,56.051 56.489,53.495 60.323,49.662 60.323,48.384 57.768,48.384 56.489,47.106 56.489,45.828 54.573,43.911 54.572,42.633    55.211,41.995 55.211,43.272 57.768,45.828 57.768,47.106 58.406,47.745 59.045,47.106 60.323,47.106 62.879,44.55 61.6,43.272    60.323,43.272 59.045,41.995 59.684,41.355 60.961,42.633 62.24,42.633 62.879,43.272 65.434,43.272 67.352,45.188 67.352,46.467    68.629,47.745 68.629,49.022 69.268,49.662 69.906,49.022 69.906,46.467 71.823,44.55 73.102,44.55 75.657,47.106  " fill="#89939e" data-fill-palette-color="accent"></polygon><polygon points="98.658,64.995 97.381,66.274 97.381,67.552 98.658,66.274  " fill="#89939e" data-fill-palette-color="accent"></polygon><polygon points="94.824,67.552 93.547,68.829 94.186,69.469 95.463,68.189 96.742,68.189 96.742,66.913 96.104,67.552  " fill="#89939e" data-fill-palette-color="accent"></polygon></g></svg></g></svg></g><g><rect width="139.20069481386443" height="1.721308536062203" y="46.186600615118785" x="256.3193051861355" fill="#89939e" data-fill-palette-color="accent"></rect><rect width="139.20069481386443" height="1.721308536062203" y="46.186600615118785" x="0" fill="#89939e" data-fill-palette-color="accent"></rect><rect width="139.20069481386443" height="1.721308536062203" y="42.74398354299438" x="256.3193051861355" fill="#89939e" data-fill-palette-color="accent"></rect><rect width="139.20069481386443" height="1.721308536062203" y="42.74398354299438" x="0" fill="#89939e" data-fill-palette-color="accent"></rect></g></svg></g></svg><rect width="395.52" height="88.80317758487429" fill="none" stroke="none" visibility="hidden"></rect></g></svg></g></svg>